<?xml version="1.0" encoding="UTF-8" standalone="no"?>
<svg
   xmlns:dc="http://purl.org/dc/elements/1.1/"
   xmlns:cc="http://creativecommons.org/ns#"
   xmlns:rdf="http://www.w3.org/1999/02/22-rdf-syntax-ns#"
   xmlns:svg="http://www.w3.org/2000/svg"
   xmlns="http://www.w3.org/2000/svg"
   xmlns:sodipodi="http://sodipodi.sourceforge.net/DTD/sodipodi-0.dtd"
   xmlns:inkscape="http://www.inkscape.org/namespaces/inkscape"
   height="32"
   width="32"
   version="1"
   id="svg12"
   sodipodi:docname="powermenu.svg"
   inkscape:version="0.92.1 r">
  <metadata
     id="metadata18">
    <rdf:RDF>
      <cc:Work
         rdf:about="">
        <dc:format>image/svg+xml</dc:format>
        <dc:type
           rdf:resource="http://purl.org/dc/dcmitype/StillImage" />
        <dc:title />
      </cc:Work>
    </rdf:RDF>
  </metadata>
  <defs
     id="defs16" />
  <sodipodi:namedview
     pagecolor="#ffffff"
     bordercolor="#666666"
     borderopacity="1"
     objecttolerance="10"
     gridtolerance="10"
     guidetolerance="10"
     inkscape:pageopacity="0"
     inkscape:pageshadow="2"
     inkscape:window-width="640"
     inkscape:window-height="480"
     id="namedview14"
     showgrid="false"
     inkscape:zoom="13.435029"
     inkscape:cx="-1.8763505"
     inkscape:cy="25.182012"
     inkscape:current-layer="svg12" />
  <path
     style="fill:#ffffff;stroke-width:1"
     d="M 14.963536,26.396605 C 14.353776,26.331885 13.317414,26.090659 12.815423,25.89661 12.668695,25.83989 12.46611,25.763257 12.365234,25.726312 11.934499,25.568556 11.175528,25.160333 10.58686,24.76979 9.4963808,24.046327 8.4953133,23.008916 7.8469685,21.930428 c -0.07167,-0.119216 -0.147899,-0.239267 -0.169404,-0.266778 -0.04541,-0.05809 -0.372453,-0.698678 -0.49373,-0.967073 -0.953772,-2.110768 -1.088921,-4.638691 -0.367261,-6.869553 0.0623,-0.19258 0.127841,-0.380159 0.145649,-0.416841 0.01781,-0.03668 0.06525,-0.156733 0.10543,-0.266779 0.104748,-0.286904 0.586762,-1.225949 0.770277,-1.50063 0.2524245,-0.377822 0.3853132,-0.564018 0.5923176,-0.829917 0.3177714,-0.40818 0.8158,-0.9212251 1.2747291,-1.313165 0.6704308,-0.5725689 0.9730938,-0.7194399 1.4764268,-0.716454 0.588814,0.00349 1.008772,0.2210739 1.324731,0.6863447 0.260356,0.3833902 0.342285,0.7998083 0.245572,1.2481503 -0.09831,0.455733 -0.222649,0.633071 -0.78361,1.1176 -0.847448,0.731982 -1.282812,1.280161 -1.72085,2.166775 -0.253923,0.513954 -0.4058259,0.963261 -0.5383368,1.592325 -0.088054,0.418011 -0.09474,0.502629 -0.093545,1.183831 0.00116,0.660673 0.010256,0.77865 0.091541,1.18616 0.5061378,2.537672 2.3313308,4.448031 4.8384138,5.064181 0.89949,0.221062 2.086273,0.214089 2.988753,-0.01756 2.422553,-0.621821 4.233224,-2.5169 4.743284,-4.9644 0.09876,-0.47392 0.10456,-0.542504 0.105775,-1.251708 0.0012,-0.688888 -0.0062,-0.787505 -0.09034,-1.204575 -0.160986,-0.798113 -0.412633,-1.43747 -0.851537,-2.163506 -0.305452,-0.50528 -0.750415,-1.027824 -1.194566,-1.402847 -0.506806,-0.427924 -0.733503,-0.660325 -0.841176,-0.86234 -0.203161,-0.381171 -0.248057,-0.942355 -0.105805,-1.3225551 0.139734,-0.3734772 0.477241,-0.7537199 0.818787,-0.9224661 0.293783,-0.1451481 0.864038,-0.1763412 1.207425,-0.066047 0.570329,0.1831875 1.801433,1.3163442 2.503682,2.3044882 0.42543,0.598629 0.922154,1.493938 1.103133,1.988315 0.04028,0.110046 0.09424,0.245103 0.119898,0.300126 0.02566,0.05502 0.09112,0.242602 0.145468,0.416842 0.653864,2.096239 0.582958,4.422171 -0.194677,6.386016 -0.815588,2.059688 -2.190357,3.707754 -3.984551,4.776652 -0.385986,0.229953 -1.107957,0.602043 -1.333893,0.687464 -1.061137,0.401189 -1.82529,0.596826 -2.684673,0.687322 -0.36784,0.03873 -1.667677,0.03796 -2.036767,-0.0012 z m 0.553022,-9.659191 c -0.0917,-0.02782 -0.206569,-0.07878 -0.255253,-0.113244 -0.04868,-0.03447 -0.103146,-0.06266 -0.121027,-0.06266 -0.01788,0 -0.133136,-0.09866 -0.256123,-0.219253 -0.284741,-0.27919 -0.444096,-0.595782 -0.489421,-0.972338 -0.01828,-0.151857 -0.02721,-1.969775 -0.02158,-4.394089 l 0.0096,-4.1350703 0.104678,-0.241618 c 0.188941,-0.436117 0.463861,-0.726216 0.870983,-0.919071 0.215554,-0.102109 0.242066,-0.10651 0.641685,-0.10651 0.397637,0 0.426966,0.0048 0.636584,0.104122 0.413363,0.195867 0.685932,0.482367 0.87566,0.920416 l 0.105101,0.242661 0.0093,4.1654093 c 0.0057,2.533552 -0.0032,4.255901 -0.02268,4.396395 -0.0852,0.614827 -0.558875,1.160461 -1.167891,1.345319 -0.198437,0.06023 -0.705618,0.05446 -0.919647,-0.01046 z"
     id="path4493"
     inkscape:connector-curvature="0" />
</svg>
