<?xml version="1.0" encoding="UTF-8" standalone="no"?>
<svg
   xmlns:dc="http://purl.org/dc/elements/1.1/"
   xmlns:cc="http://creativecommons.org/ns#"
   xmlns:rdf="http://www.w3.org/1999/02/22-rdf-syntax-ns#"
   xmlns:svg="http://www.w3.org/2000/svg"
   xmlns="http://www.w3.org/2000/svg"
   xmlns:sodipodi="http://sodipodi.sourceforge.net/DTD/sodipodi-0.dtd"
   xmlns:inkscape="http://www.inkscape.org/namespaces/inkscape"
   height="75"
   width="75"
   version="1"
   id="svg12"
   sodipodi:docname="restart_hover.svg"
   inkscape:version="0.92.1 r">
  <metadata
     id="metadata18">
    <rdf:RDF>
      <cc:Work
         rdf:about="">
        <dc:format>image/svg+xml</dc:format>
        <dc:type
           rdf:resource="http://purl.org/dc/dcmitype/StillImage" />
        <dc:title />
      </cc:Work>
    </rdf:RDF>
  </metadata>
  <defs
     id="defs16" />
  <sodipodi:namedview
     pagecolor="#ffffff"
     bordercolor="#666666"
     borderopacity="1"
     objecttolerance="10"
     gridtolerance="10"
     guidetolerance="10"
     inkscape:pageopacity="0"
     inkscape:pageshadow="2"
     inkscape:window-width="640"
     inkscape:window-height="480"
     id="namedview14"
     showgrid="false"
     inkscape:zoom="3.3587573"
     inkscape:cx="-97.28026"
     inkscape:cy="49.169562"
     inkscape:current-layer="svg12" />
  <path
     style="fill:#d9e8f6;fill-opacity:1;stroke-width:1"
     d="m 62.977718,16.439816 a 4.7004698,4.7004698 0 1 0 -9.398438,0 v 0.242188 c -0.477629,-0.356491 -0.949626,-0.694514 -1.693359,-1.191407 -0.740673,-0.494845 -3.273244,-1.79372 -4.046875,-2.076172 -0.296737,-0.108344 -0.621793,-0.237136 -0.720703,-0.285156 -0.09891,-0.04802 -0.603758,-0.224587 -1.123047,-0.392578 -6.015479,-1.945943 -12.831789,-1.581595 -18.523437,0.990234 -0.723723,0.327021 -2.450783,1.209584 -2.607422,1.332032 -0.07418,0.05798 -0.39924,0.263774 -0.720704,0.457031 -2.908123,1.748248 -5.705444,4.448213 -7.656247,7.388673 -1.05309,1.587333 -2.15274,3.633452 -2.57813,4.794922 -0.0996,0.27201 -0.30604,0.817241 -0.45898,1.21289 -0.52325,1.35361 -1.17509,4.148762 -1.34961,5.792969 -0.10556,0.995245 -0.10639,4.500314 -0.002,5.492188 0.24402,2.31731 0.77172,4.376944 1.85351,7.238281 0.23034,0.609232 1.23346,2.556852 1.85352,3.597656 2.882265,4.838012 7.324994,8.544923 12.878906,10.744141 5.295472,2.096879 11.568232,2.288523 17.220703,0.52539 0.469835,-0.146548 0.974686,-0.323388 1.123047,-0.392578 0.148368,-0.06919 0.51381,-0.213651 0.810547,-0.322265 1.333079,-0.488007 3.747135,-1.827446 5.361328,-2.97461 2.664512,-1.893602 5.718928,-5.214071 6.212891,-6.751953 0.297398,-0.925937 0.213654,-2.463678 -0.177735,-3.255859 -0.455023,-0.920972 -1.479254,-1.830242 -2.486328,-2.207031 -1.025202,-0.38358 -2.538586,-0.262664 -3.566406,0.285156 -0.54473,0.290339 -1.172282,0.900985 -2.326172,2.267578 -1.011242,1.197645 -2.420725,2.397057 -3.783203,3.220703 -1.957743,1.183497 -3.679934,1.862779 -5.832031,2.296875 -1.124622,0.22688 -1.390473,0.247341 -3.248047,0.244141 -1.912356,-0.0033 -2.099036,-0.01885 -3.376953,-0.285157 -6.59964,-1.375368 -11.708037,-6.258645 -13.384766,-12.791015 -0.624637,-2.433521 -0.644917,-5.633135 -0.04883,-8.058594 1.661438,-6.760304 6.813463,-11.682084 13.65625,-13.046876 1.098844,-0.219166 1.417727,-0.244847 3.199219,-0.248047 1.836849,-0.0032 2.064247,0.01645 3.191406,0.253906 1.69626,0.357311 2.907101,0.766472 4.292969,1.451173 0.781374,0.386044 1.46013,0.77567 2.095703,1.199219 h -0.435547 a 4.7004698,4.7004698 0 1 0 0,9.400391 H 58.27845 a 4.7004698,4.7004698 0 0 0 4.699219,-4.699219 z"
     id="path4493-3"
     inkscape:connector-curvature="0" />
</svg>
