<?xml version="1.0" encoding="UTF-8" standalone="no"?>
<svg
   xmlns:dc="http://purl.org/dc/elements/1.1/"
   xmlns:cc="http://creativecommons.org/ns#"
   xmlns:rdf="http://www.w3.org/1999/02/22-rdf-syntax-ns#"
   xmlns:svg="http://www.w3.org/2000/svg"
   xmlns="http://www.w3.org/2000/svg"
   xmlns:sodipodi="http://sodipodi.sourceforge.net/DTD/sodipodi-0.dtd"
   xmlns:inkscape="http://www.inkscape.org/namespaces/inkscape"
   height="75"
   width="75"
   version="1"
   id="svg12"
   sodipodi:docname="restart_press.svg"
   inkscape:version="0.92.1 r">
  <metadata
     id="metadata18">
    <rdf:RDF>
      <cc:Work
         rdf:about="">
        <dc:format>image/svg+xml</dc:format>
        <dc:type
           rdf:resource="http://purl.org/dc/dcmitype/StillImage" />
        <dc:title />
      </cc:Work>
    </rdf:RDF>
  </metadata>
  <defs
     id="defs16" />
  <sodipodi:namedview
     pagecolor="#ffffff"
     bordercolor="#666666"
     borderopacity="1"
     objecttolerance="10"
     gridtolerance="10"
     guidetolerance="10"
     inkscape:pageopacity="0"
     inkscape:pageshadow="2"
     inkscape:window-width="640"
     inkscape:window-height="480"
     id="namedview14"
     showgrid="false"
     inkscape:zoom="2.375"
     inkscape:cx="-52.80326"
     inkscape:cy="47.316623"
     inkscape:current-layer="svg12" />
  <path
     style="fill:#2a61ff;fill-opacity:1;stroke-width:1"
     d="m 62.135653,17.135876 a 4.5451146,4.5451146 0 1 0 -9.087811,0 V 17.37006 C 52.586,17.025351 52.129602,16.6985 51.410451,16.21803 50.694258,15.73954 48.245391,14.483595 47.497329,14.210478 47.2104,14.105715 46.896086,13.981179 46.800446,13.934747 c -0.09564,-0.04643 -0.583803,-0.217165 -1.085929,-0.379604 -5.816662,-1.881628 -12.407685,-1.529321 -17.911219,0.957506 -0.699804,0.316213 -2.369783,1.169606 -2.521244,1.288007 -0.07172,0.05606 -0.386045,0.255056 -0.696884,0.441926 -2.812007,1.690466 -5.516874,4.301195 -7.403204,7.144469 -1.018285,1.53487 -2.081588,3.513362 -2.492914,4.636445 -0.09633,0.263019 -0.295927,0.790231 -0.443815,1.172802 -0.505956,1.308873 -1.136255,4.011641 -1.305003,5.601507 -0.102066,0.96235 -0.102868,4.351573 -0.0019,5.310665 0.235956,2.240721 0.74621,4.232281 1.792254,6.999049 0.222724,0.589096 1.192686,2.472345 1.792256,3.47875 2.787003,4.67811 7.082896,8.262505 12.453245,10.389035 5.120452,2.027576 11.185891,2.212886 16.651542,0.508027 0.454307,-0.141705 0.942472,-0.3127 1.08593,-0.379604 0.143464,-0.0669 0.496827,-0.206589 0.783757,-0.311613 1.289019,-0.471879 3.623288,-1.767047 5.18413,-2.876297 2.576448,-1.831016 5.529912,-5.04174 6.007549,-6.528794 0.287569,-0.895333 0.206592,-2.382251 -0.17186,-3.148249 -0.439985,-0.890533 -1.430363,-1.769751 -2.404153,-2.134087 -0.991318,-0.370902 -2.454683,-0.253983 -3.448533,0.275731 -0.526725,0.280743 -1.133537,0.871206 -2.24929,2.192632 -0.977818,1.158062 -2.340717,2.317833 -3.658163,3.114257 -1.893038,1.144381 -3.558309,1.801212 -5.639277,2.220961 -1.087452,0.21938 -1.344516,0.239165 -3.140696,0.236071 -1.849151,-0.0032 -2.029661,-0.01823 -3.265341,-0.275732 -6.381515,-1.329911 -11.321075,-6.051791 -12.942387,-12.36826 -0.603991,-2.35309 -0.623601,-5.446954 -0.04721,-7.792249 1.606526,-6.536868 6.588271,-11.29598 13.204897,-12.615663 1.062527,-0.211922 1.37087,-0.236754 3.093482,-0.239848 1.776139,-0.0031 1.996021,0.01591 3.085927,0.245514 1.640197,0.345502 2.811018,0.741139 4.151081,1.403209 0.75555,0.373285 1.411871,0.750033 2.026438,1.159583 h -0.421151 a 4.5451146,4.5451146 0 1 0 0,9.089699 H 57.59174 a 4.5451146,4.5451146 0 0 0 4.543905,-4.543904 z"
     id="path4493"
     inkscape:connector-curvature="0" />
</svg>
