<?xml version="1.0" encoding="UTF-8" standalone="no"?>
<svg
   xmlns:dc="http://purl.org/dc/elements/1.1/"
   xmlns:cc="http://creativecommons.org/ns#"
   xmlns:rdf="http://www.w3.org/1999/02/22-rdf-syntax-ns#"
   xmlns:svg="http://www.w3.org/2000/svg"
   xmlns="http://www.w3.org/2000/svg"
   xmlns:sodipodi="http://sodipodi.sourceforge.net/DTD/sodipodi-0.dtd"
   xmlns:inkscape="http://www.inkscape.org/namespaces/inkscape"
   height="75"
   width="75"
   version="1"
   id="svg12"
   sodipodi:docname="shutdown_hover.svg"
   inkscape:version="0.92.1 r">
  <metadata
     id="metadata18">
    <rdf:RDF>
      <cc:Work
         rdf:about="">
        <dc:format>image/svg+xml</dc:format>
        <dc:type
           rdf:resource="http://purl.org/dc/dcmitype/StillImage" />
        <dc:title />
      </cc:Work>
    </rdf:RDF>
  </metadata>
  <defs
     id="defs16" />
  <sodipodi:namedview
     pagecolor="#ffffff"
     bordercolor="#666666"
     borderopacity="1"
     objecttolerance="10"
     gridtolerance="10"
     guidetolerance="10"
     inkscape:pageopacity="0"
     inkscape:pageshadow="2"
     inkscape:window-width="640"
     inkscape:window-height="480"
     id="namedview14"
     showgrid="false"
     inkscape:zoom="3.3587573"
     inkscape:cx="15.856822"
     inkscape:cy="49.169562"
     inkscape:current-layer="svg12" />
  <path
     style="fill:#d9e8f6;fill-opacity:1;stroke-width:0.99999994"
     d="m 34.705194,65.53426 c -1.644209,-0.174516 -4.438739,-0.824979 -5.792351,-1.348228 -0.395648,-0.152945 -0.941915,-0.359584 -1.213925,-0.459206 -1.161471,-0.425386 -3.208022,-1.526151 -4.795355,-2.579244 -2.940459,-1.950806 -5.639819,-4.748166 -7.38807,-7.65629 -0.193256,-0.321464 -0.398807,-0.645179 -0.456794,-0.719362 -0.122447,-0.156639 -1.004314,-1.883974 -1.331335,-2.607696 -2.57183,-5.691649 -2.936257,-12.508148 -0.990312,-18.523629 0.167991,-0.519289 0.34472,-1.025092 0.392739,-1.124004 0.04802,-0.0989 0.175945,-0.422629 0.28429,-0.719365 0.282452,-0.773632 1.582194,-3.305751 2.077038,-4.046423 0.68066,-1.018791 1.038991,-1.520865 1.597176,-2.237857 0.856864,-1.100649 2.19979,-2.484066 3.437283,-3.540926 1.807805,-1.543922 2.623932,-1.939956 3.98116,-1.931906 1.587726,0.0094 2.720136,0.596123 3.572114,1.850718 0.702045,1.033803 0.922965,2.156668 0.662181,3.365614 -0.265092,1.228876 -0.600369,1.707065 -2.112991,3.013589 -2.285128,1.973777 -3.459081,3.451933 -4.640242,5.842671 -0.6847,1.385868 -1.094302,2.597416 -1.451615,4.293677 -0.237436,1.127158 -0.255466,1.35533 -0.252244,3.192178 0.0031,1.781494 0.02766,2.099617 0.246839,3.19846 1.364792,6.842789 6.286393,11.994038 13.046699,13.655476 2.425458,0.59609 5.625598,0.577288 8.05912,-0.04734 6.532371,-1.67673 11.414814,-6.786776 12.790182,-13.386418 0.266304,-1.277917 0.281944,-1.462852 0.28522,-3.375208 0.0032,-1.857575 -0.01672,-2.123494 -0.243601,-3.248115 -0.434096,-2.152098 -1.112656,-3.876114 -2.296154,-5.833856 -0.823645,-1.36248 -2.023481,-2.771511 -3.221126,-3.782753 -1.366593,-1.153889 -1.977878,-1.780556 -2.268216,-2.325285 -0.547821,-1.02782 -0.668882,-2.541044 -0.285302,-3.566247 0.37679,-1.007073 1.286872,-2.032392 2.207845,-2.487413 0.79218,-0.391388 2.329863,-0.475501 3.255801,-0.178103 1.537882,0.493962 4.857532,3.549499 6.751134,6.214012 1.147164,1.614193 2.486572,4.028378 2.974579,5.361458 0.108608,0.296735 0.254116,0.660914 0.323303,0.809283 0.06919,0.148361 0.245703,0.654172 0.392252,1.124007 1.763133,5.652472 1.571936,11.924307 -0.524944,17.219781 -2.199219,5.553912 -5.906258,9.997893 -10.744271,12.880159 -1.040804,0.620063 -2.987587,1.623397 -3.59682,1.853733 -2.861337,1.0818 -4.921863,1.609331 -7.239173,1.853353 -0.991874,0.104434 -4.496862,0.102358 -5.492107,-0.0032 z m 1.491214,-26.045839 c -0.247268,-0.07501 -0.557011,-0.212429 -0.688286,-0.30536 -0.131264,-0.09295 -0.27813,-0.168962 -0.326347,-0.168962 -0.04821,0 -0.359,-0.266036 -0.690632,-0.591212 -0.767798,-0.752831 -1.197496,-1.606516 -1.319715,-2.621893 -0.04929,-0.40948 -0.07337,-5.311463 -0.05819,-11.848584 l 0.02588,-11.150143 0.282264,-0.651519 c 0.509475,-1.175982 1.250792,-1.958229 2.348589,-2.4782591 0.581237,-0.2753351 0.652727,-0.287203 1.730293,-0.287203 1.07222,0 1.151305,0.012941 1.716537,0.2807633 1.114626,0.5281528 1.849603,1.3006948 2.361202,2.4818858 l 0.283403,0.654332 0.02508,11.231952 c 0.01537,6.831678 -0.0086,11.475962 -0.06117,11.854802 -0.22974,1.65787 -1.506996,3.129162 -3.149198,3.627629 -0.535082,0.16241 -1.902685,0.14685 -2.479811,-0.0282 z"
     id="path4493"
     inkscape:connector-curvature="0" />
</svg>
