<?xml version="1.0" encoding="UTF-8" standalone="no"?>
<svg
   xmlns:dc="http://purl.org/dc/elements/1.1/"
   xmlns:cc="http://creativecommons.org/ns#"
   xmlns:rdf="http://www.w3.org/1999/02/22-rdf-syntax-ns#"
   xmlns:svg="http://www.w3.org/2000/svg"
   xmlns="http://www.w3.org/2000/svg"
   xmlns:sodipodi="http://sodipodi.sourceforge.net/DTD/sodipodi-0.dtd"
   xmlns:inkscape="http://www.inkscape.org/namespaces/inkscape"
   height="75"
   width="75"
   version="1"
   id="svg12"
   sodipodi:docname="powermenu_focus.svg"
   inkscape:version="0.92.1 r">
  <metadata
     id="metadata18">
    <rdf:RDF>
      <cc:Work
         rdf:about="">
        <dc:format>image/svg+xml</dc:format>
        <dc:type
           rdf:resource="http://purl.org/dc/dcmitype/StillImage" />
        <dc:title></dc:title>
      </cc:Work>
    </rdf:RDF>
  </metadata>
  <defs
     id="defs16" />
  <sodipodi:namedview
     pagecolor="#ffffff"
     bordercolor="#666666"
     borderopacity="1"
     objecttolerance="10"
     gridtolerance="10"
     guidetolerance="10"
     inkscape:pageopacity="0"
     inkscape:pageshadow="2"
     inkscape:window-width="640"
     inkscape:window-height="480"
     id="namedview14"
     showgrid="false"
     inkscape:zoom="6.7175144"
     inkscape:cx="56.791971"
     inkscape:cy="30.584637"
     inkscape:current-layer="svg12" />
  <path
     style="fill:#2a61ff;fill-opacity:1;stroke-width:1"
     d="M 34.705188,65.534258 C 33.060981,65.359742 30.26645,64.70928 28.91284,64.18603 28.517191,64.033086 27.970924,63.826446 27.698914,63.726825 26.537444,63.301439 24.490893,62.200673 22.90356,61.147581 19.963101,59.196776 17.263742,56.399416 15.515494,53.491292 15.322237,53.169828 15.116685,52.846113 15.0587,52.77193 14.936252,52.615291 14.054384,50.887957 13.727363,50.164235 11.155534,44.472587 10.791107,37.656088 12.73705,31.640609 c 0.167991,-0.519289 0.344721,-1.025092 0.39274,-1.124004 0.04802,-0.09891 0.175946,-0.422628 0.28429,-0.719365 0.282451,-0.773631 1.582193,-3.305749 2.077038,-4.046422 0.68066,-1.01879 1.03899,-1.520864 1.597175,-2.237856 0.856864,-1.10065 2.19979,-2.484066 3.437284,-3.540923 1.807804,-1.543922 2.623929,-1.939957 3.981158,-1.931905 1.587726,0.0094 2.720135,0.596119 3.572113,1.850714 0.702045,1.033804 0.922965,2.156668 0.66218,3.365614 -0.265091,1.228876 -0.600369,1.707064 -2.11299,3.013588 -2.285128,1.973776 -3.459079,3.451931 -4.640241,5.84267 -0.6847,1.385868 -1.094304,2.597416 -1.451615,4.293676 -0.237452,1.127159 -0.255465,1.35533 -0.252229,3.192179 0.0032,1.781492 0.02767,2.099615 0.246836,3.198459 1.364791,6.842787 6.286391,11.994035 13.046695,13.655473 2.425459,0.596089 5.625598,0.577287 8.059119,-0.04735 6.53237,-1.676729 11.414812,-6.786775 12.79018,-13.386415 0.266304,-1.277917 0.281944,-1.462852 0.28522,-3.375208 0.0032,-1.857574 -0.01672,-2.123493 -0.2436,-3.248115 -0.434096,-2.152097 -1.112657,-3.876112 -2.296154,-5.833855 -0.823646,-1.362478 -2.023481,-2.771509 -3.221126,-3.782751 -1.366593,-1.15389 -1.977877,-1.780555 -2.268216,-2.325285 -0.54782,-1.02782 -0.668881,-2.541043 -0.285301,-3.566245 0.37679,-1.007074 1.286872,-2.03239 2.207844,-2.487413 0.792181,-0.391389 2.329863,-0.475501 3.2558,-0.178103 1.537882,0.493963 4.857532,3.549498 6.751134,6.21401 1.147164,1.614193 2.486571,4.028377 2.974578,5.361456 0.108614,0.296737 0.254116,0.660916 0.323303,0.809284 0.06919,0.148361 0.245703,0.654172 0.392251,1.124007 1.763133,5.652471 1.571936,11.924305 -0.524943,17.219777 -2.199218,5.553912 -5.906258,9.997892 -10.74427,12.880157 -1.040804,0.620064 -2.987586,1.623398 -3.596818,1.853734 -2.861337,1.081799 -4.921862,1.60933 -7.239172,1.853351 -0.991874,0.104435 -4.496861,0.102359 -5.492106,-0.0032 z m 1.491214,-26.045835 c -0.247267,-0.07502 -0.55701,-0.212429 -0.688285,-0.30536 -0.131265,-0.09295 -0.278131,-0.168962 -0.326347,-0.168962 -0.04821,0 -0.358999,-0.266035 -0.690631,-0.591211 -0.767799,-0.752831 -1.197497,-1.606516 -1.319715,-2.621892 -0.04929,-0.40948 -0.07337,-5.311463 -0.05819,-11.848582 l 0.02589,-11.150141 0.282262,-0.651519 c 0.509476,-1.175981 1.250793,-1.958227 2.34859,-2.4782574 0.581238,-0.275335 0.652727,-0.287202 1.730292,-0.287202 1.072221,0 1.151306,0.01294 1.716538,0.280763 1.114625,0.5281524 1.849603,1.3006934 2.361201,2.4818844 l 0.283403,0.654331 0.02508,11.231949 c 0.01537,6.831678 -0.0086,11.475961 -0.06116,11.8548 -0.22974,1.65787 -1.506996,3.129162 -3.149197,3.627629 -0.535082,0.162409 -1.902686,0.14685 -2.479812,-0.0282 z"
     id="path4493"
     inkscape:connector-curvature="0" />
</svg>
