<?xml version="1.0" encoding="UTF-8" standalone="no"?>
<svg
   xmlns:dc="http://purl.org/dc/elements/1.1/"
   xmlns:cc="http://creativecommons.org/ns#"
   xmlns:rdf="http://www.w3.org/1999/02/22-rdf-syntax-ns#"
   xmlns:svg="http://www.w3.org/2000/svg"
   xmlns="http://www.w3.org/2000/svg"
   xmlns:sodipodi="http://sodipodi.sourceforge.net/DTD/sodipodi-0.dtd"
   xmlns:inkscape="http://www.inkscape.org/namespaces/inkscape"
   height="75"
   width="75"
   version="1"
   id="svg12"
   sodipodi:docname="suspend_hover.svg"
   inkscape:version="0.92.1 r">
  <metadata
     id="metadata18">
    <rdf:RDF>
      <cc:Work
         rdf:about="">
        <dc:format>image/svg+xml</dc:format>
        <dc:type
           rdf:resource="http://purl.org/dc/dcmitype/StillImage" />
        <dc:title />
      </cc:Work>
    </rdf:RDF>
  </metadata>
  <defs
     id="defs16" />
  <sodipodi:namedview
     pagecolor="#ffffff"
     bordercolor="#666666"
     borderopacity="1"
     objecttolerance="10"
     gridtolerance="10"
     guidetolerance="10"
     inkscape:pageopacity="0"
     inkscape:pageshadow="2"
     inkscape:window-width="640"
     inkscape:window-height="480"
     id="namedview14"
     showgrid="false"
     inkscape:zoom="3.3587573"
     inkscape:cx="-97.28026"
     inkscape:cy="49.169562"
     inkscape:current-layer="svg12" />
  <path
     style="opacity:1;fill:#d9e8f6;fill-opacity:1;fill-rule:nonzero;stroke:none;stroke-width:2.79999995;stroke-linecap:round;stroke-linejoin:round;stroke-miterlimit:4;stroke-dasharray:none;stroke-dashoffset:0;stroke-opacity:1"
     d="M 20.93751,65.164062 A 28.135406,28.135406 0 0 0 25.92775,65.634766 28.135406,28.135406 0 0 0 54.06251,37.5 28.135406,28.135406 0 0 0 25.92775,9.365234 a 28.135406,28.135406 0 0 0 -4.95118,0.447265 31.410427,31.410427 0 0 1 0.22461,0.107422 31.410427,31.410427 0 0 1 2.67774,1.642579 31.410427,31.410427 0 0 1 2.49804,1.900391 31.410427,31.410427 0 0 1 2.29883,2.138671 31.410427,31.410427 0 0 1 2.07227,2.359376 31.410427,31.410427 0 0 1 1.82617,2.554687 31.410427,31.410427 0 0 1 1.5625,2.722656 31.410427,31.410427 0 0 1 1.28125,2.865235 31.410427,31.410427 0 0 1 0.99023,2.980468 31.410427,31.410427 0 0 1 0.6875,3.0625 31.410427,31.410427 0 0 1 0.37891,3.117188 31.410427,31.410427 0 0 1 0.0781,2.222656 31.410427,31.410427 0 0 1 -0.15625,3.134766 31.410427,31.410427 0 0 1 -0.46875,3.105468 31.410427,31.410427 0 0 1 -0.77734,3.041016 31.410427,31.410427 0 0 1 -1.07618,2.951172 31.410427,31.410427 0 0 1 -1.36718,2.826172 31.410427,31.410427 0 0 1 -1.64063,2.677734 31.410427,31.410427 0 0 1 -1.90039,2.498047 31.410427,31.410427 0 0 1 -2.13867,2.298828 31.410427,31.410427 0 0 1 -2.35938,2.070313 31.410427,31.410427 0 0 1 -2.55468,1.828125 31.410427,31.410427 0 0 1 -2.17578,1.246093 z"
     id="path4487"
     inkscape:connector-curvature="0" />
</svg>
